<svg xmlns="http://www.w3.org/2000/svg" viewBox="194.11 166.81 691.78 746.39" aria-hidden="true">
  <defs>
    <style>.cls-1{fill:#faf8f2}.cls-2{fill:#272e25}.cls-3{fill:#379e5d}</style>
  </defs>
  <path class="cls-2" d="M842.86,166.81H292.17c-54.16,0-98.06,43.9-98.06,98.06v606.44c0,23.14,18.76,41.89,41.89,41.89h592.79c31.53,0,57.1-25.56,57.1-57.1V209.84c0-23.76-19.26-43.03-43.03-43.03Z"/>
  <path class="cls-1" d="M374.16,393.12c-17.63,0-31.93,14.29-31.93,31.93v157.98h-110.47v276.52c0,10.66,8.64,19.31,19.31,19.31h562.82l36.41-51.72v-434.01h-476.15Z"/>
  <rect class="cls-3" x="231.76" y="583.03" width="178.32" height="141.09"/>
  <rect class="cls-3" x="441.53" y="583.03" width="164.67" height="141.09"/>
  <rect class="cls-3" x="441.53" y="760.11" width="164.67" height="118.74"/>
  <path class="cls-3" d="M677.36,207.35h157.91c8.3,0,15.03,6.73,15.03,15.03v159.15l-172.94-174.18Z"/>
  <path class="cls-2" d="M537.99,475.83c4.61,1.62,7.48,6.32,6.64,11.13-5.03,28.5-29.91,50.13-59.86,50.13-33.58,0-60.82-27.21-60.82-60.82,0-10.46,2.64-20.31,7.3-28.9,2.39-4.41,7.58-6.48,12.31-4.81l94.43,33.26Z"/>
  <path class="cls-2" d="M657.86,475.83c-4.61,1.62-7.48,6.32-6.64,11.13,5.03,28.5,29.91,50.13,59.86,50.13,33.58,0,60.82-27.21,60.82-60.82,0-10.46-2.64-20.31-7.3-28.9-2.39-4.41-7.58-6.48-12.31-4.81l-94.43,33.26Z"/>
  <path class="cls-3" d="M637.64,583.03v295.82h188.46c13.37,0,24.2-10.84,24.2-24.2v-271.62h-212.66Z"/>
  <path class="cls-3" d="M231.76,760.11v99.44c0,10.66,8.64,19.31,19.31,19.31h159.01v-118.74h-178.32Z"/>
</svg>
